<svg id="Layer_1" data-name="Layer 1" xmlns="http://www.w3.org/2000/svg" viewBox="0 0 1024 1024"><defs><style>.cls-1{fill:#f25252;}.cls-2{fill:#6ab6d5;}</style></defs><path class="cls-1" d="M33.89,332.45c265.61,101.4,265.61,256.1,0,359.11a7.33,7.33,0,0,0-2.91,10.13c12.73,22.08,53.87,93.47,74.55,129.4l1.86,3.21a7.31,7.31,0,0,0,10.24,2.55c222.38-180,356.07-102.66,310.33,179.57a7.27,7.27,0,0,0,7.26,7.58H588a7.27,7.27,0,0,0,7.27-7.58c-45.83-282.23,88.14-359.58,311-179.57a7.34,7.34,0,0,0,10.26-2.55l1.87-3.21c20.71-35.93,61.94-107.32,74.7-129.4a7.32,7.32,0,0,0-2.92-10.13c-266.22-103-266.22-257.71,0-359.11A7.34,7.34,0,0,0,993,322.29L916.48,189.72a7.33,7.33,0,0,0-10.27-2.55C684.76,368,550.8,290.62,595.23,7.62A7.33,7.33,0,0,0,587.89,0H435.24a7.32,7.32,0,0,0-7.31,7.62c44.34,283-89.35,360.35-310.33,179.55a7.3,7.3,0,0,0-10.24,2.55L31,322.29A7.35,7.35,0,0,0,33.89,332.45Zm477.17,44.37h.85C603.74,377.18,674,469.08,636.09,566a125,125,0,0,1-70.72,70.7,148.1,148.1,0,0,1-53.46,10.47h-.85a147.58,147.58,0,0,1-53.35-10.47A124.78,124.78,0,0,1,387.16,566C349.33,469.08,419.43,377.18,511.06,376.82Z"/><circle class="cls-2" cx="532.77" cy="531.43" r="55.17"/></svg>