<svg xmlns="http://www.w3.org/2000/svg" viewBox="0 0 1024 1024"><defs><style>.cls-1{isolation:isolate;}.cls-2{mix-blend-mode:multiply;}.cls-3{fill:#f25252;}.cls-4{fill:#6ab6d5;}</style></defs><g class="cls-1"><g id="Layer_1" data-name="Layer 1"><g class="cls-2"><path class="cls-3" d="M839.19,630.65a131.65,131.65,0,0,1-.29-223.3q4.08-2.58,8.36-4.82L957,339.17,873.41,194.4,763.52,257.84c-2.59,1.63-5.25,3.16-7.95,4.6A131.65,131.65,0,0,1,562.08,150.78q-.17-4.56,0-9.14v-127H394.91V141.28c.13,3.28.13,6.57,0,9.85a131.64,131.64,0,0,1-193.66,111.2c-2.57-1.36-5.08-2.82-7.56-4.35L83.58,194.4,0,339.17l109.67,63.32c2.87,1.5,5.69,3.13,8.42,4.86a131.64,131.64,0,0,1-.29,223.3q-3.83,2.4-7.83,4.51L0,698.66,83.58,843.43l110-63.51q3.84-2.4,7.82-4.51A131.64,131.64,0,0,1,394.91,886.7q.19,4.92,0,9.85v126.62H562.08v-127q-.17-4.56,0-9.15A131.64,131.64,0,0,1,755.44,775.32q4.17,2.2,8.17,4.71l109.8,63.4L957,698.66,847,635.14Q843,633,839.19,630.65Zm-246.7-45.94A131.62,131.62,0,1,1,544.3,404.92,131.64,131.64,0,0,1,592.49,584.71Z"/></g><g class="cls-2"><path class="cls-4" d="M906.2,616.83a131.64,131.64,0,0,1-.29-223.3q4.08-2.56,8.35-4.82L1024,325.35,940.42,180.58,830.53,244q-3.9,2.44-8,4.6A131.64,131.64,0,0,1,629.09,137c-.11-3-.11-6.1,0-9.15V.83H461.92V127.46c.12,3.29.12,6.58,0,9.85a131.64,131.64,0,0,1-193.67,111.2c-2.57-1.35-5.08-2.82-7.55-4.35L150.59,180.58,67,325.35l109.67,63.32c2.88,1.51,5.69,3.14,8.43,4.86a131.65,131.65,0,0,1-.29,223.3q-3.84,2.4-7.83,4.52L67,684.84l83.59,144.78,110-63.51q3.82-2.42,7.82-4.52a131.64,131.64,0,0,1,193.51,111.3c.12,3.27.12,6.56,0,9.85v126.62H629.09v-127q-.17-4.56,0-9.14A131.63,131.63,0,0,1,822.45,761.51c2.77,1.46,5.5,3,8.16,4.71l109.81,63.4L1024,684.84,914,621.32C911.32,619.93,908.74,618.42,906.2,616.83ZM659.49,570.9a131.62,131.62,0,1,1-48.18-179.8A131.62,131.62,0,0,1,659.49,570.9Z"/></g></g></g></svg>