<svg id="Layer_1" data-name="Layer 1" xmlns="http://www.w3.org/2000/svg" viewBox="0 0 2167 520"><defs><style>.cls-1{fill:#f25252;}.cls-2{fill:#6ab6d5;}</style></defs><path class="cls-1" d="M1.8,169c134.81,51.46,134.81,130,0,182.26A3.71,3.71,0,0,0,.3,356.41c6.46,11.21,27.34,47.44,37.84,65.68l.94,1.63A3.7,3.7,0,0,0,44.27,425c112.87-91.36,180.73-52.1,157.51,91.14a3.7,3.7,0,0,0,3.69,3.85H283a3.7,3.7,0,0,0,3.69-3.85C263.44,372.91,331.44,333.65,444.55,425a3.71,3.71,0,0,0,5.2-1.29l.95-1.63c10.52-18.24,31.44-54.47,37.92-65.68a3.72,3.72,0,0,0-1.49-5.14C352,299,352,220.47,487.11,169a3.73,3.73,0,0,0,1.49-5.16L449.75,96.56a3.72,3.72,0,0,0-5.21-1.29C332.14,187,264.15,147.78,286.7,4.14A3.73,3.73,0,0,0,283,.27H205.5a3.71,3.71,0,0,0-3.71,3.87C224.29,147.78,156.44,187,44.28,95.27a3.71,3.71,0,0,0-5.2,1.29L.31,163.85A3.73,3.73,0,0,0,1.8,169ZM244,191.53h.43c46.61.18,82.26,46.82,63,96a63.44,63.44,0,0,1-35.89,35.88,75.31,75.31,0,0,1-27.14,5.32H244a75,75,0,0,1-27.08-5.32,63.32,63.32,0,0,1-35.8-35.88C161.9,238.35,197.47,191.71,244,191.53Z"/><path class="cls-2" d="M852.37,88.07c-54.14,0-71.47,29.6-72.19,70v25.27h73.63V257H780.18V520.48H685.61V257H622.09V183.36h63.52V158.82C685.61,57.76,737.59,0,833.6,0H874V88.07Z"/><path class="cls-2" d="M1161.31,185.53l-21.65,90.23c-20.22-10.82-36.82-12.26-48.37-12.26-48.37,0-81.57,45.47-81.57,141.49V520.48H915.14V183.36H1009v72.19c18.77-56.31,57-80.85,98.91-80.85C1125.94,174.7,1146.15,177.59,1161.31,185.53Z"/><path class="cls-2" d="M1751.06,335.68v184.8h-95.29V338.57c0-52.69-27.43-75.07-60.64-75.07-40.42-.73-66.41,28.14-66.41,90.95v166h-94.56V340c0-53.43-27.43-76.52-59.2-76.52-33.93,0-68.57,18.75-68.57,79.4V520.48h-94.58V183.36h94.58v65.7c7.21-49.82,57-74.36,95.28-74.36,49.81,0,88.07,23.83,108.29,66.42,24.54-49.09,77.23-66.42,112.6-66.42C1707,174.7,1751.06,234.62,1751.06,335.68Z"/><path class="cls-2" d="M2166.81,520.48H2056.35L1982,412.92l-75.79,107.56H1795l133.55-182.64L1817.41,183.36H1929.3l53.42,78,52-78h111.17L2034.7,337.84Z"/><circle class="cls-2" cx="255" cy="270" r="28"/></svg>