<svg id="Layer_1" data-name="Layer 1" xmlns="http://www.w3.org/2000/svg" viewBox="0 0 1024 1024"><defs><style>.cls-1{fill:#f25252;}</style></defs><path class="cls-1" d="M990.11,691.55c-265.61-101.4-265.61-256.1,0-359.11a7.33,7.33,0,0,0,2.91-10.13c-12.73-22.08-53.87-93.47-74.55-129.4l-1.86-3.21a7.31,7.31,0,0,0-10.24-2.55C684,367.16,550.34,289.81,596.08,7.58A7.27,7.27,0,0,0,588.82,0H436a7.27,7.27,0,0,0-7.27,7.58c45.83,282.23-88.14,359.58-311,179.57a7.34,7.34,0,0,0-10.26,2.55l-1.87,3.21c-20.71,35.93-61.94,107.32-74.7,129.4a7.32,7.32,0,0,0,2.92,10.13c266.22,103,266.22,257.71,0,359.11A7.34,7.34,0,0,0,31,701.71l76.55,132.57a7.33,7.33,0,0,0,10.27,2.55c221.45-180.8,355.41-103.45,311,179.55a7.33,7.33,0,0,0,7.34,7.62H588.76a7.32,7.32,0,0,0,7.31-7.62C551.73,733.38,685.42,656,906.4,836.83a7.3,7.3,0,0,0,10.24-2.55L993,701.71A7.35,7.35,0,0,0,990.11,691.55ZM512.94,647.18h-.85C420.26,646.82,350,554.92,387.91,458a125,125,0,0,1,70.72-70.7,148.1,148.1,0,0,1,53.46-10.47h.85a147.58,147.58,0,0,1,53.35,10.47A124.78,124.78,0,0,1,636.84,458C674.67,554.92,604.57,646.82,512.94,647.18Z"/></svg>