<svg xmlns="http://www.w3.org/2000/svg" viewBox="0 0 1722 447"><defs><style>.cls-1{isolation:isolate;}.cls-2{mix-blend-mode:multiply;}.cls-3{fill:#6ab6d5;}.cls-4{fill:#f25252;}</style></defs><g class="cls-1"><g id="Layer_1" data-name="Layer 1"><g class="cls-2"><g class="cls-2"><path class="cls-3" d="M331.23,292.06a51.9,51.9,0,0,1-.11-88c1.07-.68,2.17-1.31,3.29-1.9l43.27-25-33-57.08-43.32,25c-1,.64-2.07,1.25-3.14,1.81a51.91,51.91,0,0,1-76.29-44c0-1.2,0-2.4,0-3.61V49.18H156.06V99.11c.05,1.3.05,2.59,0,3.89a51.89,51.89,0,0,1-76.35,43.84c-1-.53-2-1.11-3-1.72L33.32,120.06l-33,57.08,43.24,25c1.13.59,2.24,1.24,3.32,1.92a51.9,51.9,0,0,1-.11,88c-1,.63-2,1.22-3.09,1.78l-43.36,25,33,57.08,43.36-25c1-.63,2-1.22,3.09-1.78A51.9,51.9,0,0,1,156.06,393c.05,1.29.05,2.59,0,3.89v49.92H222V396.75c0-1.2,0-2.4,0-3.61a51.91,51.91,0,0,1,76.24-44c1.1.58,2.17,1.2,3.22,1.86l43.29,25,33-57.08-43.38-25C333.25,293.28,332.23,292.68,331.23,292.06ZM234,274a51.89,51.89,0,1,1-19-70.89A51.91,51.91,0,0,1,234,274Z"/></g><g class="cls-2"><path class="cls-3" d="M652.17,102.75c-43.08,0-56.87,23.55-57.44,55.72v20.1h58.59v58.59H594.73V446.82H519.48V237.16H468.93V178.57h50.55V159c0-80.41,41.36-126.37,117.76-126.37H669.4v70.08Z"/><path class="cls-3" d="M898,180.3l-17.24,71.8a78,78,0,0,0-38.48-9.77c-38.49,0-64.91,36.19-64.91,112.58v91.91H702.12V178.57H776.8V236c14.93-44.8,45.37-64.33,78.69-64.33C869.85,171.68,885.93,174,898,180.3Z"/><path class="cls-3" d="M1367.26,299.77V446.82h-75.82V302.07c0-41.93-21.83-59.74-48.25-59.74-32.17-.57-52.84,22.4-52.84,72.38V446.82H1115.1V303.22c0-42.51-21.83-60.89-47.1-60.89-27,0-54.57,14.93-54.57,63.19v141.3H938.18V178.57h75.25v52.27c5.74-39.63,45.37-59.16,75.82-59.16,39.64,0,70.08,19,86.16,52.85,19.53-39.06,61.46-52.85,89.61-52.85C1332.22,171.68,1367.26,219.35,1367.26,299.77Z"/><path class="cls-3" d="M1698.07,446.82h-87.88L1551,361.23l-60.31,85.59h-88.46l106.27-145.33-88.47-122.92h89l42.51,62,41.35-62h88.46L1593,301.49Z"/></g></g><g class="cls-2"><g class="cls-2"><path class="cls-4" d="M355.16,260.15a51.9,51.9,0,0,1-.11-88c1.07-.68,2.17-1.31,3.29-1.9l43.27-25-33-57.08-43.32,25c-1,.64-2.07,1.25-3.14,1.81a51.9,51.9,0,0,1-76.28-44c0-1.2,0-2.4,0-3.61V17.28H180V67.2c0,1.3,0,2.6,0,3.89a51.9,51.9,0,0,1-76.36,43.84c-1-.53-2-1.11-3-1.72L57.25,88.15l-33,57.08,43.24,25c1.13.59,2.24,1.24,3.32,1.92a51.9,51.9,0,0,1-.11,88c-1,.63-2,1.22-3.09,1.78L24.29,287l33,57.08,43.37-25c1-.63,2-1.22,3.08-1.78A51.91,51.91,0,0,1,180,361.1c0,1.3,0,2.59,0,3.89v49.92h65.91V364.84q-.07-1.8,0-3.6a51.9,51.9,0,0,1,76.23-44.05c1.1.58,2.17,1.2,3.22,1.86l43.29,25,33-57.08-43.38-25C357.18,261.37,356.16,260.78,355.16,260.15ZM257.89,242a51.89,51.89,0,1,1-19-70.89A51.9,51.9,0,0,1,257.89,242Z"/></g><g class="cls-2"><path class="cls-4" d="M676.1,70.84c-43.08,0-56.87,23.55-57.44,55.72v20.1h58.59v58.59H618.66V414.91H543.41V205.25H492.86V146.66h50.55V127.13C543.41,46.72,584.77.77,661.17.77h32.16V70.84Z"/><path class="cls-4" d="M921.93,148.39l-17.24,71.8a78,78,0,0,0-38.48-9.77c-38.49,0-64.91,36.19-64.91,112.59v91.9H726.05V146.66h74.68V204.1c14.93-44.8,45.37-64.33,78.69-64.33C893.78,139.77,909.86,142.07,921.93,148.39Z"/><path class="cls-4" d="M1391.19,267.86V414.91h-75.82V270.16c0-41.93-21.83-59.74-48.25-59.74-32.17-.57-52.84,22.4-52.84,72.38V414.91H1139V271.31c0-42.51-21.83-60.89-47.1-60.89-27,0-54.57,14.94-54.57,63.19v141.3H962.11V146.66h75.25v52.28c5.74-39.64,45.37-59.17,75.82-59.17,39.63,0,70.07,19,86.16,52.85,19.53-39.06,61.46-52.85,89.61-52.85C1356.15,139.77,1391.19,187.45,1391.19,267.86Z"/><path class="cls-4" d="M1722,414.91h-87.89L1575,329.32l-60.31,85.59h-88.46l106.27-145.33L1444,146.66h89l42.51,62,41.35-62h88.46l-88.46,122.92Z"/></g></g></g></g></svg>